name C:\Users\tom_v\MusculoskeletalSpecialization\ResultsSprinting\Case_5\motion.mot
datacolumns 32
datarows 7
range 0.11828086 0.14666827
endheader 
time	pelvis_tilt	pelvis_list	pelvis_rotation	pelvis_tx	pelvis_ty	pelvis_tz	hip_flexion_r	hip_adduction_r	hip_rotation_r	knee_angle_r	ankle_angle_r	subtalar_angle_r	mtp_angle_r	hip_flexion_l	hip_adduction_l	hip_rotation_l	knee_angle_l	ankle_angle_l	subtalar_angle_l	mtp_angle_l	lumbar_extension	lumbar_bending	lumbar_rotation	arm_flex_r	arm_add_r	arm_rot_r	elbow_flex_r	arm_flex_l	arm_add_l	arm_rot_l	elbow_flex_l	
          0.11828086	        -10.47340033	          6.54211538	        -27.41920269	          1.04323068	          0.99664141	          0.03199500	          3.29288970	        -13.58541013	         -4.10714991	        -34.82362804	        -19.68758331	         -9.34060073	          4.57591637	         60.28118067	        -12.72870415	         -7.06721342	        -54.38666860	         16.40021589	        -11.59877600	         -1.10575808	         -5.77143846	         -4.03797747	         23.45559372	         49.92394297	          4.41450249	         16.85454011	         45.56298769	        -69.90972941	        -13.53690792	        -13.18061383	          3.98863641	
          0.12301210	         -9.72209717	          5.74604872	        -28.22848793	          1.08531563	          1.00032094	          0.03184127	          2.35920666	        -13.80577822	         -4.33496097	        -35.48520035	        -19.96100616	         -8.59607469	          5.51248640	         59.63419944	        -13.55770412	         -7.22172590	        -53.70459310	         17.43389117	        -11.16228141	         -0.34209879	         -6.69928101	         -3.92083604	         24.64140807	         49.99986227	          2.86861008	         15.16015366	         31.88793783	        -69.92860869	         -9.62879018	        -12.00045686	          5.39104641	
          0.12774333	         -8.94250401	          4.86045559	        -28.89275953	          1.12766262	          1.00397555	          0.03121810	          1.38419842	        -13.95088045	         -4.64227905	        -36.08859192	        -20.31731551	         -8.48245461	          5.87173380	         58.74851483	        -14.18613916	         -7.21413038	        -52.82489052	         18.52672333	        -10.54038288	          0.25677059	         -7.71216825	         -3.78690517	         26.01598279	         49.60810657	         -0.14379636	         15.31498121	         19.76016416	        -69.95829948	         -6.21295432	         -8.09497742	          6.19680122	
          0.13247456	         -8.18011191	          3.97824445	        -29.39274189	          1.17029895	          1.00742570	          0.03009859	          0.46288180	        -14.08235822	         -5.03459701	        -36.69294950	        -19.98421066	         -8.76991405	          6.09929698	         57.69168625	        -14.55534710	         -7.06984433	        -51.72090463	         19.61050106	         -9.73864673	          0.68841483	         -8.71666990	         -3.69319717	         27.59508108	         47.70845599	         -4.71084498	         17.43959225	         11.29733609	        -69.97575387	         -3.39181014	         -2.01293313	          6.14962728	
          0.13720580	         -7.40735733	          3.13382370	        -29.68367784	          1.21324338	          1.01064936	          0.02847731	         -0.42457968	        -14.23086283	         -5.51899011	        -37.28424037	        -19.66665237	         -9.17311230	          6.44069171	         56.46064370	        -14.60837829	         -6.78559926	        -50.39558486	         20.49378721	         -8.70951012	          1.91318208	         -9.73078980	         -3.67214434	         29.29033926	         43.72428369	        -10.61391728	         19.30222651	          7.76840609	        -69.99831655	         -1.02492280	          4.06758833	          5.26266837	
          0.14193703	         -6.57676241	          2.31997121	        -29.74500274	          1.25640561	          1.01366767	          0.02637661	         -1.31728262	        -14.38674963	         -6.05865947	        -37.88344742	        -19.42502100	         -9.25468261	          6.61501646	         55.03433886	        -14.34412130	         -6.36325705	        -48.88239666	         21.35439531	         -7.32243672	          3.55399793	        -10.83529196	         -3.71395617	         31.00489257	         37.93879656	        -17.32309352	         18.79422984	          8.08037627	        -69.93301665	          1.09806307	          7.16728119	          3.49651249	
          0.14666827	         -5.67018339	          1.53547720	        -29.58446759	          1.29960101	          1.01644792	          0.02388746	         -2.20385490	        -14.51932450	         -6.59770556	        -38.53921190	        -18.98399245	         -9.15316969	          6.70162932	         53.42771548	        -13.81761238	         -5.86272417	        -47.22579841	         22.29839866	         -5.79698055	          4.27775491	        -12.08519923	         -3.78382607	         32.62455300	         31.33759430	        -23.89311119	         16.83098072	          8.85906823	        -69.89780766	          2.93867296	          4.63754049	          1.72857125	
